<svg width="306" height="104" version="1.1" xmlns="http://www.w3.org/2000/svg" desc="Created with imagetracer.js version 1.2.6" ><path fill="rgb(0,0,0)" stroke="rgb(0,0,0)" stroke-width="1" opacity="0" d="M 0 0 L 305.5 0 L 306 0.5 L 306 25 L 301.5 23 L 268.5 23 L 262 26.5 L 259 33.5 L 248 80.5 L 250.5 84 L 253.5 85 L 285.5 85 L 289.5 84 L 294 79.5 L 305.5 34 L 306 104 L 0 104 L 0 0 Z M 16 23 L 1 82 L 2 85 L 20 85 L 25 63 L 29 61 L 29 83 L 28 84 L 29 85 L 48 85 L 50 78 L 49 77 L 49 67 L 47 56 L 47 53 L 59 33 L 62 24 L 43 23 L 34 45 L 30 46 L 35 26 L 35 23 L 16 23 Z M 72 23 L 57 82 L 58 85 L 76 85 L 91 26 L 91 23 L 72 23 Z M 101 23 L 99 30 L 100 50 L 101 51 L 101 53 L 86 77 L 84 84 L 85 85 L 103 85 L 113 63 L 115 62 L 115 75 L 114 76 L 114 85 L 133 85 L 135 80 L 134 62 L 133 61 L 133 52 L 143 36 L 147 26 L 147 23 L 130 23 L 120 45 L 118 46 L 118 34 L 119 33 L 119 23 L 101 23 Z M 157 23 L 142 82 L 143 85 L 161 85 L 165 66 L 187 66 L 190 65 L 195 58 L 202 29 L 201 25 L 197 23 L 157 23 Z M 210 23 L 207 36 L 208 38 L 218 38 L 208 81 L 206 85 L 226 85 L 237 42 L 237 38 L 247 38 L 252 31 L 253 27 L 253 23 L 210 23 Z " /><path fill="rgb(0,0,0)" stroke="rgb(0,0,0)" stroke-width="1" opacity="0" d="M 172 38 L 180 38 L 180 40.5 L 177 51 L 169 50.5 L 172 38 Z " /><path fill="rgb(0,0,0)" stroke="rgb(0,0,0)" stroke-width="1" opacity="0" d="M 277 38 L 285 38 L 285 40.5 L 278 68.5 L 276.5 70 L 270 70 L 270 66.5 L 277 38 Z " /><path fill="rgb(255,255,255)" stroke="rgb(255,255,255)" stroke-width="1" opacity="1" d="M 16 23 L 34.5 23 L 35 25.5 L 30 46 L 34 44.5 L 43 23 L 62 23.5 L 59 32.5 L 47 52.5 L 47 55.5 L 49 66.5 L 49 76.5 L 50 77.5 L 48 85 L 28.5 85 L 28 83.5 L 29 82.5 L 29 61 L 25 62.5 L 20 85 L 1.5 85 L 1 81.5 L 16 23 Z " /><path fill="rgb(255,255,255)" stroke="rgb(255,255,255)" stroke-width="1" opacity="1" d="M 72 23 L 90.5 23 L 91 25.5 L 76 85 L 57.5 85 L 57 81.5 L 72 23 Z " /><path fill="rgb(255,255,255)" stroke="rgb(255,255,255)" stroke-width="1" opacity="1" d="M 101 23 L 119 23 L 119 32.5 L 118 33.5 L 118 45.5 L 120 44.5 L 129.5 23 L 146.5 23 L 147 25.5 L 143 35.5 L 133 51.5 L 133 60.5 L 134 61.5 L 135 79.5 L 132.5 85 L 114 85 L 114 75.5 L 115 74.5 L 115 61.5 L 113 62.5 L 102.5 85 L 84.5 85 L 84 83.5 L 86 76.5 L 101 52.5 L 101 50.5 L 100 49.5 L 99 29.5 L 101 23 Z " /><path fill="rgb(255,255,255)" stroke="rgb(255,255,255)" stroke-width="1" opacity="1" d="M 157 23 L 196.5 23 L 201 25 L 202 28.5 L 195 57.5 L 189.5 65 L 186.5 66 L 165 66 L 161 85 L 142.5 85 L 142 81.5 L 157 23 Z M 172 38 L 169 51 L 177 51 L 180 41 L 180 38 L 172 38 Z " /><path fill="rgb(255,255,255)" stroke="rgb(255,255,255)" stroke-width="1" opacity="1" d="M 210 23 L 252.5 23 L 253 26.5 L 252 30.5 L 246.5 38 L 237 38 L 237 41.5 L 226 85 L 206 84.5 L 208 80.5 L 218 38 L 207.5 38 L 207 35.5 L 210 23 Z " /><path fill="rgb(255,255,255)" stroke="rgb(255,255,255)" stroke-width="1" opacity="1" d="M 268.5 23 L 301.5 23 L 306 25 L 306 33.5 L 295 77.5 L 289.5 84 L 285.5 85 L 253.5 85 L 249 82.5 L 248 77.5 L 259 33.5 L 263.5 25 L 268.5 23 Z M 277 38 L 270 67 L 270 70 L 277 70 L 278 69 L 285 41 L 285 38 L 277 38 Z " /></svg>